<?xml version="1.0" standalone="no"?>
<!DOCTYPE svg PUBLIC "-//W3C//DTD SVG 20010904//EN"
 "http://www.w3.org/TR/2001/REC-SVG-20010904/DTD/svg10.dtd">
<svg version="1.0" xmlns="http://www.w3.org/2000/svg"
 width="398.000000pt" height="90.000000pt" viewBox="0 0 398.000000 90.000000"
 preserveAspectRatio="xMidYMid meet">

<g transform="translate(0.000000,90.000000) scale(0.100000,-0.100000)"
fill="#000000" stroke="none">
<path d="M318 776 c-148 -40 -206 -198 -110 -299 39 -42 86 -63 211 -95 151
-40 186 -65 163 -117 -7 -16 -26 -28 -54 -36 -60 -17 -68 -26 -68 -74 0 -55
17 -70 72 -61 114 18 189 98 189 202 0 107 -73 167 -251 209 -41 10 -97 27
-123 38 -44 18 -48 22 -45 51 3 26 11 35 51 54 l48 23 -3 57 c-3 65 -8 68 -80
48z"/>
<path d="M932 777 c-8 -9 -12 -35 -10 -64 l3 -48 182 -5 c163 -5 184 -7 209
-26 51 -38 51 -118 0 -147 -13 -8 -88 -14 -206 -17 l-185 -5 0 -180 0 -180 60
0 60 0 3 118 3 117 83 0 84 0 74 -118 74 -117 65 0 c58 0 64 2 67 22 2 14 -22
60 -67 127 -39 58 -71 108 -71 111 0 3 6 5 14 5 8 0 29 12 47 27 73 61 90 177
42 274 -24 46 -36 58 -87 84 -59 30 -62 30 -246 34 -157 3 -188 1 -198 -12z"/>
<path d="M1712 782 c-9 -6 -12 -27 -10 -63 l3 -54 176 -5 c156 -4 179 -7 198
-24 25 -22 28 -73 7 -102 -13 -17 -29 -19 -178 -22 -220 -3 -210 0 -206 -70
l3 -57 185 -5 c191 -5 219 -11 240 -50 15 -27 12 -45 -9 -71 -19 -23 -24 -24
-218 -29 l-198 -5 0 -60 0 -60 195 -3 c213 -3 250 4 312 56 76 64 79 203 6
270 l-25 23 24 46 c52 104 17 208 -92 266 -36 19 -59 22 -220 25 -99 1 -186
-1 -193 -6z"/>
<path d="M2475 773 c-15 -14 -16 -41 -13 -237 3 -167 8 -231 20 -263 34 -92
126 -171 204 -176 l39 -2 3 60 3 60 -43 20 c-32 15 -49 32 -65 65 -22 42 -23
56 -23 255 0 151 -3 214 -12 223 -18 18 -94 15 -113 -5z"/>
<path d="M2942 777 c-6 -7 -12 -98 -14 -232 -3 -208 -4 -222 -26 -256 -12 -20
-39 -45 -60 -54 -20 -10 -40 -23 -44 -29 -12 -18 -9 -81 5 -100 29 -40 151 17
204 96 52 76 56 97 61 334 3 196 2 223 -13 237 -20 20 -98 23 -113 4z"/>
<path d="M3593 783 c-10 -3 -13 -59 -13 -226 -1 -254 -6 -291 -49 -324 -25
-20 -31 -32 -31 -63 0 -55 8 -70 39 -70 44 0 103 42 136 94 l30 49 3 259 c2
189 0 263 -9 274 -11 13 -79 18 -106 7z"/>
<path d="M464 756 c-9 -37 -1 -88 16 -96 8 -4 28 -14 44 -21 18 -9 35 -28 44
-51 15 -38 15 -38 73 -38 67 0 79 15 58 78 -18 56 -55 100 -109 127 -65 33
-117 34 -126 1z"/>
<path d="M146 324 c-4 -9 0 -40 9 -69 20 -70 82 -128 160 -150 76 -23 85 -17
85 48 0 55 -12 77 -41 77 -27 0 -68 39 -77 73 -8 31 -10 32 -69 35 -49 2 -62
0 -67 -14z"/>
<path d="M3241 316 c-35 -42 53 -185 129 -207 58 -18 70 -9 70 54 0 46 -4 57
-27 79 -16 14 -36 39 -45 57 -16 28 -21 31 -66 31 -30 0 -54 -5 -61 -14z"/>
</g>
</svg>
